<?xml version="1.0" encoding="utf-8"?>
<!-- Generator: Adobe Illustrator 21.1.0, SVG Export Plug-In . SVG Version: 6.00 Build 0)  -->
<svg version="1.1" id="Calque_1" xmlns="http://www.w3.org/2000/svg" xmlns:xlink="http://www.w3.org/1999/xlink" x="0px" y="0px"
	 viewBox="0 0 106.1 103.4" style="enable-background:new 0 0 106.1 103.4;" xml:space="preserve">
<style type="text/css">
	.st0{fill:#E0861B;}
</style>
<g>
	<path class="st0" d="M87.9,80.7c-0.9,1.2-1.3,2.5-1.9,3.6c-1.4,2.9-3,5.5-5.3,7.7c-1.1,1.1-2.4,2-3.9,2.5c-3.2,0.9-7.1-0.6-9.3-3.7
		c-0.5-0.7-0.9-1.5-1.5-2.5c-0.5,0.5-0.5,1-0.7,1.5c-0.6,2.3-1.5,4.5-2.7,6.5c-2.3,3.6-6.4,5.6-10.1,4.6
		c-6.1-1.6-10.8-5.8-11.9-12.7c-0.1-0.3,0.1-0.7-0.3-0.9c-0.5,0.3-0.5,0.8-0.8,1.2c-0.5,1.2-1.1,2.5-1.7,3.5
		c-1.8,3.3-4.1,3.9-7.5,2.3c-2.5-1.2-4.5-3-5.9-5.3c-2.3-3.6-3.5-7.6-3.7-11.8c-0.6-0.2-0.9,0.5-1.2,0.7c-0.7,0.7-1.4,1.4-2.3,1.8
		c-1.7,0.8-3.4,0.7-4.9-0.5c-2.1-1.8-3.6-3.9-4.6-6.5c-1.2-3.1-1.9-6.3-2.3-9.5c-0.5-5.4-0.8-10.7-0.1-16.1c0.4-2.6,1-5.2,2.3-7.5
		c0.9-1.6,2.1-3,3.8-3.8c2.5-1.3,4.8-1.2,7.1,0.6c0.7,0.5,1.4,1.3,2,1.9c0.5,0.5,0.8,1,1.5,1.3c0.3-1.6,0.5-3.1,0.9-4.5
		c0.9-3.8,2.6-7.2,6-9.5c1.1-0.8,2.4-1.5,3.7-1.6c3.9-0.5,7.4,1.9,8.1,5.9c0.1,0.5-0.1,1.1,0.5,1.5c0.5-0.5,0.8-1.1,1.2-1.6
		c1.5-2.3,3.5-4.3,5.8-5.7c3.1-1.9,6.2-2.1,9.5-0.5c2.3,1.1,4.2,2.5,5.9,4.4c0.5,0.5,0.7,1,1.4,1.4c0.6-0.5,0.9-1.2,1.4-1.7
		c2.6-3.6,6.6-3.9,9.9-2.5c2,0.8,3.7,2.1,5.1,3.6c2.5,2.8,4.5,5.9,5.5,9.6c0.1,0.3,0.1,0.6,0.5,0.9c0.5-0.2,0.9-0.7,1.4-1.1
		c1.5-1.2,3.3-1.3,5-0.5c1.4,0.7,2.4,1.8,3.2,3.1c2.1,3,3,6.4,3.7,9.8c1.2,6.6,1.1,13.3,0.5,20c-0.2,1.9-0.4,3.7-0.8,5.6
		c-0.3,1.2-0.7,2.3-1.3,3.4c-1.5,3.2-6.1,5-9.8,2.3C88.6,81.2,88.3,80.9,87.9,80.7z M79,65.6c0.6-0.9,1-1.6,0.6-2.5
		c-0.6-1.5-2.7-2.4-4.2-1.6c-1.6,0.8-3.2,1.7-4.8,2.5c-0.5,0.3-0.5,0.6-0.4,1.1c0.1,0.3,0.3,0.5,0.4,0.8c0.5,1.2,0.4,1.7-0.6,2.5
		c-2.2,1.8-3.3,1.5-4.6-1c0-0.1-0.1-0.1-0.1-0.2c-0.3-0.7-0.7-0.9-1.5-0.7c-2.3,0.6-4.6,1.1-7.1,1.3c-0.8,0.1-1.1,0.4-1.1,1.2
		c0,0.9,0,1.8-0.1,2.7c-0.2,1.8-1.3,2.6-3,2.5c-1.3-0.1-2-1-2.1-2.6c0-0.8,0-1.7,0-2.5c0-1.2,0-1.2-1.2-1.4
		c-2.2-0.3-4.4-0.4-6.5-0.8c-0.7-0.2-1.5-0.5-2.2-0.4c-0.9,0.3-0.6,1.4-0.9,2c-0.4,0.7-0.6,1.5-1.5,1.6c-2.3,0.5-3.8-1.1-3.3-3.4
		c0.1-0.4,0.2-0.6,0.3-1c0.4-0.8,0-1.1-0.7-1.3c-1.1-0.3-2.2-0.6-3.3-1c-1.1-0.4-1.9,0-2.6,0.7c-1.4,1.3-1.5,3.1-0.3,4.6
		c2.5,3.2,5.8,5.3,9.4,7.1c0.5-0.9,0.9-1.6,1.4-2.5c0.9-1.5,2.1-1.7,4-0.7c1.3,0.6,1.5,1.5,1,3.2c-0.3,0.6-0.7,1.3-0.7,2.1
		c4.5,1.2,8.9,1.3,13.4,1c0.8,0,1.1-0.4,1-1.2c-0.2-1.4-0.3-2.7,0.1-4.1c0.2-0.9,0.7-1.5,1.6-1.5c0.4,0,0.6-0.1,1-0.1
		c1.7-0.2,2.5,0.3,2.7,2c0.2,0.9,0.2,1.8,0.2,2.7c0.1,0.7,0.3,1,1.1,0.7c3.5-1.3,6.6-3,9.1-5.8c0.5-0.7,1.5-1.3,1.6-2.1
		c0.1-0.8-0.8-1.5-1.3-2.2c-1.2-1.8-0.6-3.5,1.4-4.3c0.9-0.4,1.6-0.3,2.3,0.5C78.2,64.2,78.5,64.7,79,65.6z M41.6,57.1
		c2.2,0.1,3-0.9,2.6-3c-0.1-0.4-0.1-0.8-0.3-1.2c-1.2-4.2-2.6-8.2-4.1-12.3c-0.2-0.5-0.5-1-0.9-1.5c-0.5-0.5-0.9-0.6-1.5-0.1
		c-0.8,0.6-1.5,1.5-1.8,2.4c-1.6,3.5-3,7.1-4.2,10.8c-0.6,2.1,0,3,2.1,3.6C36.2,56.6,39,56.9,41.6,57.1z M65.9,57.2
		c0.7-0.1,2.1-0.1,3.4-0.3c1.5-0.2,2.2-1.1,2-2.6c-0.1-0.7-0.3-1.5-0.5-2.2c-1.2-4.2-2.7-8.4-3.6-12.6c-0.1-0.2-0.2-0.5-0.3-0.6
		c-0.5-1-1.1-1.2-2-0.5c-0.8,0.5-1.1,1.5-1.5,2.3c-1.4,3.5-2.6,7.1-3.6,10.6c-0.2,0.7-0.5,1.5-0.5,2.4c-0.3,1.8,0.4,2.6,2.1,3.2
		C62.6,57.3,64,57.2,65.9,57.2z"/>
	<path d="M60.4,2.2c-3.7,0.4-7.4,0.6-11.1,1.2c-1.3,0.2-2.6,0.5-3.8,1c-1.1,0.5-1.8,1.4-1.7,2.9c0,0.1,0,0.5,0.1,0.8
		c0.8,3.7,1.6,7.5,2.5,11.2c0.1,0.5,0.2,0.9,0.5,1.3c0.5,0.9,1,1.1,2.1,0.9c1-0.2,1.8-0.5,2.7-0.9c1.3-0.5,2.5-0.5,3.8-0.1
		c1.5,0.5,1.7,0.4,2.5-1c0.3-0.5,0.5-0.9,0.5-1.5c0.9-4.4,2.3-8.6,4.1-12.6C63.5,3.6,62.8,2,60.4,2.2z"/>
</g>
</svg>
